<svg width="400" height="272" xmlns="http://www.w3.org/2000/svg"><g fill="none"><path fill="#FF1E1E" d="M258.041 262.614l-109-52.745-72.414 22.333-71.666-34.44 76.702-98.363-13.09-24.48 42.25-38.884 65.346-2.757 75.763-28.195 134.81 144.88-63.782 96.646z"/><path d="M83.234 166.806c28.557 8.613 58.512.57 89.865-24.13l147.042 95.18-30.065 18.558h-49.052l-77.414-38.196-70.816 17.903-80.405-36.476L69.71 170.04l13.523-3.234zm51.891-112.688c10.395-2.711 31.75 22.304 32.824 28.396 3.729 21.15 5.36 35.456-20.785 56.34-17.43 13.924-36.958 19.096-56.481 15.748l5.17-23.333-18.84-37.547c13.335-19.775 32.706-32.976 58.112-39.604z" fill="#BF0000"/><path d="M90.49 243.63l-1.701.44L.306 204.297l1.972-4.53c14.167-32.556 34.937-61.142 62.275-85.723a360.593 360.593 0 0 1 11.871-10.218l-4.644-8.775-5.55-10.486-1.85-3.495-1.193-2.256 1.126-2.29C76.589 51.557 95.82 37.405 127.05 29.05c19.156-5.126 35.187-4.767 47.959 1.308 24.189-13.614 47.803-22.706 76.343-29.63l1.069-.256L396.86 155.43l-1.54 3.1c-10.04 20.231-22.513 44.425-37.42 72.584-17.25 32.583-45.981 44.388-83.287 38.964-27.99-4.07-58.484-16.992-95.094-37.759-3.41-1.934-7.025-3.98-10.843-6.137-16.934 2.527-43.024 8.345-78.187 17.448zM71.24 121.48c-25.011 22.488-44.26 48.4-57.775 77.768l61.268 27.539c14.474-5.637 35.303-11.742 62.487-18.314a27244.826 27244.826 0 0 0-63.601-35.566l-4.635-2.584 23.31-36.515-11.092-20.955a351.22 351.22 0 0 0-9.963 8.627zm37.169 48.63l-.001-.075.11.046c37.823-6.669 67.385-36.695 78.028-55.724a214.21 214.21 0 0 0 5.765-9.14l51.774-92.3c-27.436 7.462-50.357 17.406-74.833 32.428l-10.77-5.056a377.32 377.32 0 0 1 5.375-3.366c-9.317-2.39-20.701-1.833-34.222 1.785-27.623 7.391-44.269 19.196-55.203 39.976l.637 1.203 5.55 10.486 19.567 36.97c4.432 1.195 11.669 1.437 19.002.3 9.563-1.481 18.459-5.058 25.496-10.738 14.16-11.43 21.644-20.1 22.244-27.61.717-8.976-5.242-21.145-21.765-44.099l.06-.043.02.035c23.3 15.595 39.195 40.565 26.352 58.586l-.002.15c-1.225 1.833-2.648 3.679-4.257 5.543-4.215 4.882-9.35 9.55-16.371 15.219-8.51 6.869-19.042 11.104-30.246 12.84-6.82 1.057-13.635 1.105-19.12.289l-18.476 28.943a28074.662 28074.662 0 0 1 49.522 27.684l-.01-.198c50.94-2.765 83.888-33.64 115.817-84.379-24.397 51.796-54.575 85.053-101.113 92.821 9.725 5.462 18.562 10.44 26.514 14.933 50.017-3.23 80.238-30.587 111.843-80.812-24.104 51.175-51.882 81.44-97.081 89.153a550.68 550.68 0 0 0 14.753 7.948 74.995 74.995 0 0 1-.427-.397 222.31 222.31 0 0 0 5.428 2.952c2.825 1.42 5.61 2.783 8.358 4.087 49.817-3.224 77.614-27.178 109.168-77.322-23.193 49.24-47.963 76.516-89.716 84.877 30.533 9.177 55.228 3.552 79.965-11.987 8.576-5.387 28.937-34.415 61.084-87.085L253.598 16.401 201 110.17l-.067.115c-9.29 15.57-19.314 28.367-30.064 38.359-16.353 14.027-37.137 21.174-62.351 21.438l-.11.028z" fill="#3C0000"/></g></svg>